<?xml version="1.0" encoding="UTF-8"?>
<svg viewBox="0 0 936 362" version="1.1" xmlns="http://www.w3.org/2000/svg" xmlns:xlink="http://www.w3.org/1999/xlink">
    <title>Logo/SRC@1x</title>
    <g id="Logo/SRC" stroke="none" stroke-width="1" fill="none" fill-rule="evenodd">
        <g id="Group-16" transform="translate(21.000000, 20.000000)">
            <g id="Src" transform="translate(361.104000, 32.552000)" fill="#000000" fill-rule="nonzero">
                <path d="M0,161.616 L23.384,128.76 C25.3573333,129.944 27.972,131.522667 31.228,133.496 C34.484,135.469333 40.4533333,138.034667 49.136,141.192 C57.8186667,144.349333 65.712,145.928 72.816,145.928 C85.84,145.928 92.352,140.994667 92.352,131.128 C92.352,126.392 90.3293333,122.544 86.284,119.584 C82.2386667,116.624 74.0986667,113.368 61.864,109.816 C42.1306667,104.093333 27.4293333,97.0386667 17.76,88.652 C8.09066667,80.2653333 3.256,69.0666667 3.256,55.056 C3.256,38.2826667 9.028,24.9133333 20.572,14.948 C32.116,4.98266667 49.2346667,0 71.928,0 C86.136,0 98.8146667,1.57866667 109.964,4.736 C121.113333,7.89333333 128.661333,11.0506667 132.608,14.208 L138.824,18.944 L115.736,53.872 C114.354667,52.688 112.381333,51.3066667 109.816,49.728 C107.250667,48.1493333 102.169333,45.9786667 94.572,43.216 C86.9746667,40.4533333 79.4266667,39.072 71.928,39.072 C59.1013333,39.072 52.688,43.4133333 52.688,52.096 C52.688,56.4373333 54.6613333,59.792 58.608,62.16 C62.5546667,64.528 69.9546667,67.2906667 80.808,70.448 C101.528,76.1706667 117.018667,83.3733333 127.28,92.056 C137.541333,100.738667 142.672,112.184 142.672,126.392 C142.672,143.56 136.850667,157.669333 125.208,168.72 C113.565333,179.770667 96.5946667,185.296 74.296,185.296 C59.6933333,185.296 46.2253333,183.322667 33.892,179.376 C21.5586667,175.429333 12.8266667,171.482667 7.696,167.536 L0,161.616 Z" id="Path"></path>
                <path d="M183.816,3.848 L262.256,3.848 C282.384,3.848 298.812,9.472 311.54,20.72 C324.268,31.968 330.632,46.2746667 330.632,63.64 C330.632,75.6773333 327.721333,86.284 321.9,95.46 C316.078667,104.636 307.938667,111.592 297.48,116.328 L297.48,119.584 L337.44,178.488 L337.44,181.448 L288.6,181.448 L251.6,123.136 L226.736,123.136 L226.736,181.448 L183.816,181.448 L183.816,3.848 Z M286.232,63.64 C286.232,56.1413333 283.765333,50.468 278.832,46.62 C273.898667,42.772 267.386667,40.848 259.296,40.848 L226.736,40.848 L226.736,86.728 L259.592,86.728 C267.485333,86.728 273.898667,84.7053333 278.832,80.66 C283.765333,76.6146667 286.232,70.9413333 286.232,63.64 Z" id="Shape"></path>
                <path d="M489.544,130.832 L514.112,163.688 C513.52,164.28 512.730667,165.069333 511.744,166.056 C510.757333,167.042667 508.438667,168.818667 504.788,171.384 C501.137333,173.949333 497.141333,176.169333 492.8,178.044 C488.458667,179.918667 482.736,181.645333 475.632,183.224 C468.528,184.802667 461.128,185.592 453.432,185.592 C425.608,185.592 403.408,176.712 386.832,158.952 C370.256,141.192 361.968,119.090667 361.968,92.648 C361.968,66.4026667 370.256,44.4 386.832,26.64 C403.408,8.88 425.608,0 453.432,0 C465.864,0 477.112,1.82533333 487.176,5.476 C497.24,9.12666667 504.245333,12.728 508.192,16.28 L514.112,21.608 L489.544,54.464 C488.754667,53.4773333 487.472,52.244 485.696,50.764 C483.92,49.284 479.973333,47.3106667 473.856,44.844 C467.738667,42.3773333 461.128,41.144 454.024,41.144 C440.013333,41.144 428.568,45.88 419.688,55.352 C410.808,64.824 406.368,77.256 406.368,92.648 C406.368,108.04 410.808,120.472 419.688,129.944 C428.568,139.416 440.013333,144.152 454.024,144.152 C461.128,144.152 467.64,143.066667 473.56,140.896 C479.48,138.725333 483.624,136.456 485.992,134.088 L489.544,130.832 Z" id="Path"></path>
            </g>
            <g id="Security-&amp;-Resilienc" transform="translate(351.864000, 266.144000)" fill="#000000" fill-rule="nonzero">
                <path d="M0,19.656 L2.844,15.66 C3.084,15.804 3.402,15.996 3.798,16.236 C4.194,16.476 4.92,16.788 5.976,17.172 C7.032,17.556 7.992,17.748 8.856,17.748 C10.44,17.748 11.232,17.148 11.232,15.948 C11.232,15.372 10.986,14.904 10.494,14.544 C10.002,14.184 9.012,13.788 7.524,13.356 C5.124,12.66 3.336,11.802 2.16,10.782 C0.984,9.762 0.396,8.4 0.396,6.696 C0.396,4.656 1.098,3.03 2.502,1.818 C3.906,0.606 5.988,0 8.748,0 C10.476,0 12.018,0.192 13.374,0.576 C14.73,0.96 15.648,1.344 16.128,1.728 L16.884,2.304 L14.076,6.552 C13.908,6.408 13.668,6.24 13.356,6.048 C13.044,5.856 12.426,5.592 11.502,5.256 C10.578,4.92 9.66,4.752 8.748,4.752 C7.188,4.752 6.408,5.28 6.408,6.336 C6.408,6.864 6.648,7.272 7.128,7.56 C7.608,7.848 8.508,8.184 9.828,8.568 C12.348,9.264 14.232,10.14 15.48,11.196 C16.728,12.252 17.352,13.644 17.352,15.372 C17.352,17.46 16.644,19.176 15.228,20.52 C13.812,21.864 11.748,22.536 9.036,22.536 C7.26,22.536 5.622,22.296 4.122,21.816 C2.622,21.336 1.56,20.856 0.936,20.376 L0,19.656 Z" id="Path"></path>
                <polygon id="Path" points="35.36 9.072 35.36 13.176 26.576 13.176 26.576 17.568 37.052 17.568 37.052 22.068 21.356 22.068 21.356 0.468 37.052 0.468 37.052 4.968 26.576 4.968 26.576 9.072"></polygon>
                <path d="M55.276,15.912 L58.264,19.908 C58.192,19.98 58.096,20.076 57.976,20.196 C57.856,20.316 57.574,20.532 57.13,20.844 C56.686,21.156 56.2,21.426 55.672,21.654 C55.144,21.882 54.448,22.092 53.584,22.284 C52.72,22.476 51.82,22.572 50.884,22.572 C47.5,22.572 44.8,21.492 42.784,19.332 C40.768,17.172 39.76,14.484 39.76,11.268 C39.76,8.076 40.768,5.4 42.784,3.24 C44.8,1.08 47.5,0 50.884,0 C52.396,0 53.764,0.222 54.988,0.666 C56.212,1.11 57.064,1.548 57.544,1.98 L58.264,2.628 L55.276,6.624 C55.18,6.504 55.024,6.354 54.808,6.174 C54.592,5.994 54.112,5.754 53.368,5.454 C52.624,5.154 51.82,5.004 50.956,5.004 C49.252,5.004 47.86,5.58 46.78,6.732 C45.7,7.884 45.16,9.396 45.16,11.268 C45.16,13.14 45.7,14.652 46.78,15.804 C47.86,16.956 49.252,17.532 50.956,17.532 C51.82,17.532 52.612,17.4 53.332,17.136 C54.052,16.872 54.556,16.596 54.844,16.308 L55.276,15.912 Z" id="Path"></path>
                <path d="M70.908,22.572 C68.028,22.572 65.712,21.642 63.96,19.782 C62.208,17.922 61.332,15.576 61.332,12.744 L61.332,0.468 L66.552,0.468 L66.552,12.744 C66.552,14.16 66.924,15.306 67.668,16.182 C68.412,17.058 69.492,17.496 70.908,17.496 C72.348,17.496 73.434,17.058 74.166,16.182 C74.898,15.306 75.264,14.16 75.264,12.744 L75.264,0.468 L80.484,0.468 L80.484,12.744 C80.484,15.6 79.62,17.952 77.892,19.8 C76.164,21.648 73.836,22.572 70.908,22.572 Z" id="Path"></path>
                <path d="M85.46,0.468 L95,0.468 C97.448,0.468 99.446,1.152 100.994,2.52 C102.542,3.888 103.316,5.628 103.316,7.74 C103.316,9.204 102.962,10.494 102.254,11.61 C101.546,12.726 100.556,13.572 99.284,14.148 L99.284,14.544 L104.144,21.708 L104.144,22.068 L98.204,22.068 L93.704,14.976 L90.68,14.976 L90.68,22.068 L85.46,22.068 L85.46,0.468 Z M97.916,7.74 C97.916,6.828 97.616,6.138 97.016,5.67 C96.416,5.202 95.624,4.968 94.64,4.968 L90.68,4.968 L90.68,10.548 L94.676,10.548 C95.636,10.548 96.416,10.302 97.016,9.81 C97.616,9.318 97.916,8.628 97.916,7.74 Z" id="Shape"></path>
                <polygon id="Path" points="113.08 0.468 113.08 22.068 107.86 22.068 107.86 0.468"></polygon>
                <polygon id="Path" points="116.94 4.968 116.94 0.468 134.328 0.468 134.328 4.968 128.244 4.968 128.244 22.068 123.024 22.068 123.024 4.968"></polygon>
                <polygon id="Path" points="146.756 7.02 150.392 0.468 156.008 0.468 148.448 13.68 148.448 22.068 143.228 22.068 143.228 13.752 135.632 0.468 141.248 0.468 144.884 7.02 145.82 9.216"></polygon>
                <path d="M180.648,10.08 L185.616,11.196 C185.232,13.62 184.272,15.804 182.736,17.748 L187.2,22.068 L180.144,22.068 L179.028,20.952 C177.276,21.936 175.452,22.428 173.556,22.428 C170.508,22.428 168.258,21.84 166.806,20.664 C165.354,19.488 164.628,17.88 164.628,15.84 C164.628,13.512 165.972,11.628 168.66,10.188 L168.372,9.864 C167.1,8.52 166.464,7.128 166.464,5.688 C166.464,4.056 167.094,2.7 168.354,1.62 C169.614,0.54 171.348,0 173.556,0 C175.716,0 177.438,0.516 178.722,1.548 C180.006,2.58 180.648,3.9 180.648,5.508 C180.648,6.972 180.258,8.16 179.478,9.072 C178.698,9.984 177.624,10.776 176.256,11.448 L179.172,14.292 C179.94,13.02 180.432,11.616 180.648,10.08 Z M173.664,18 C174.384,18 175.092,17.856 175.788,17.568 L171.9,13.536 C170.892,14.232 170.388,14.976 170.388,15.768 C170.388,16.416 170.67,16.95 171.234,17.37 C171.798,17.79 172.608,18 173.664,18 Z M171.576,6.048 C171.576,6.6 172.068,7.368 173.052,8.352 C174.732,7.632 175.572,6.876 175.572,6.084 C175.572,5.556 175.404,5.118 175.068,4.77 C174.732,4.422 174.24,4.248 173.592,4.248 C172.92,4.248 172.416,4.416 172.08,4.752 C171.744,5.088 171.576,5.52 171.576,6.048 Z" id="Shape"></path>
                <path d="M197.98,0.468 L207.52,0.468 C209.968,0.468 211.966,1.152 213.514,2.52 C215.062,3.888 215.836,5.628 215.836,7.74 C215.836,9.204 215.482,10.494 214.774,11.61 C214.066,12.726 213.076,13.572 211.804,14.148 L211.804,14.544 L216.664,21.708 L216.664,22.068 L210.724,22.068 L206.224,14.976 L203.2,14.976 L203.2,22.068 L197.98,22.068 L197.98,0.468 Z M210.436,7.74 C210.436,6.828 210.136,6.138 209.536,5.67 C208.936,5.202 208.144,4.968 207.16,4.968 L203.2,4.968 L203.2,10.548 L207.196,10.548 C208.156,10.548 208.936,10.302 209.536,9.81 C210.136,9.318 210.436,8.628 210.436,7.74 Z" id="Shape"></path>
                <polygon id="Path" points="234.384 9.072 234.384 13.176 225.6 13.176 225.6 17.568 236.076 17.568 236.076 22.068 220.38 22.068 220.38 0.468 236.076 0.468 236.076 4.968 225.6 4.968 225.6 9.072"></polygon>
                <path d="M239,19.656 L241.844,15.66 C242.084,15.804 242.402,15.996 242.798,16.236 C243.194,16.476 243.92,16.788 244.976,17.172 C246.032,17.556 246.992,17.748 247.856,17.748 C249.44,17.748 250.232,17.148 250.232,15.948 C250.232,15.372 249.986,14.904 249.494,14.544 C249.002,14.184 248.012,13.788 246.524,13.356 C244.124,12.66 242.336,11.802 241.16,10.782 C239.984,9.762 239.396,8.4 239.396,6.696 C239.396,4.656 240.098,3.03 241.502,1.818 C242.906,0.606 244.988,0 247.748,0 C249.476,0 251.018,0.192 252.374,0.576 C253.73,0.96 254.648,1.344 255.128,1.728 L255.884,2.304 L253.076,6.552 C252.908,6.408 252.668,6.24 252.356,6.048 C252.044,5.856 251.426,5.592 250.502,5.256 C249.578,4.92 248.66,4.752 247.748,4.752 C246.188,4.752 245.408,5.28 245.408,6.336 C245.408,6.864 245.648,7.272 246.128,7.56 C246.608,7.848 247.508,8.184 248.828,8.568 C251.348,9.264 253.232,10.14 254.48,11.196 C255.728,12.252 256.352,13.644 256.352,15.372 C256.352,17.46 255.644,19.176 254.228,20.52 C252.812,21.864 250.748,22.536 248.036,22.536 C246.26,22.536 244.622,22.296 243.122,21.816 C241.622,21.336 240.56,20.856 239.936,20.376 L239,19.656 Z" id="Path"></path>
                <polygon id="Path" points="265.576 0.468 265.576 22.068 260.356 22.068 260.356 0.468"></polygon>
                <polygon id="Path" points="285.708 22.068 270.84 22.068 270.84 0.468 276.06 0.468 276.06 17.568 285.708 17.568"></polygon>
                <polygon id="Path" points="294.932 0.468 294.932 22.068 289.712 22.068 289.712 0.468"></polygon>
                <polygon id="Path" points="314.2 9.072 314.2 13.176 305.416 13.176 305.416 17.568 315.892 17.568 315.892 22.068 300.196 22.068 300.196 0.468 315.892 0.468 315.892 4.968 305.416 4.968 305.416 9.072"></polygon>
                <polygon id="Path" points="339.768 0.468 339.768 22.068 335.736 22.068 325.368 9.468 325.368 22.068 320.184 22.068 320.184 0.468 324.216 0.468 334.584 12.852 334.584 0.468"></polygon>
                <path d="M359.36,15.912 L362.348,19.908 C362.276,19.98 362.18,20.076 362.06,20.196 C361.94,20.316 361.658,20.532 361.214,20.844 C360.77,21.156 360.284,21.426 359.756,21.654 C359.228,21.882 358.532,22.092 357.668,22.284 C356.804,22.476 355.904,22.572 354.968,22.572 C351.584,22.572 348.884,21.492 346.868,19.332 C344.852,17.172 343.844,14.484 343.844,11.268 C343.844,8.076 344.852,5.4 346.868,3.24 C348.884,1.08 351.584,0 354.968,0 C356.48,0 357.848,0.222 359.072,0.666 C360.296,1.11 361.148,1.548 361.628,1.98 L362.348,2.628 L359.36,6.624 C359.264,6.504 359.108,6.354 358.892,6.174 C358.676,5.994 358.196,5.754 357.452,5.454 C356.708,5.154 355.904,5.004 355.04,5.004 C353.336,5.004 351.944,5.58 350.864,6.732 C349.784,7.884 349.244,9.396 349.244,11.268 C349.244,13.14 349.784,14.652 350.864,15.804 C351.944,16.956 353.336,17.532 355.04,17.532 C355.904,17.532 356.696,17.4 357.416,17.136 C358.136,16.872 358.64,16.596 358.928,16.308 L359.36,15.912 Z" id="Path"></path>
                <polygon id="Path" points="379.708 9.072 379.708 13.176 370.924 13.176 370.924 17.568 381.4 17.568 381.4 22.068 365.704 22.068 365.704 0.468 381.4 0.468 381.4 4.968 370.924 4.968 370.924 9.072"></polygon>
                <path d="M407.948,15.912 L410.936,19.908 C410.864,19.98 410.768,20.076 410.648,20.196 C410.528,20.316 410.246,20.532 409.802,20.844 C409.358,21.156 408.872,21.426 408.344,21.654 C407.816,21.882 407.12,22.092 406.256,22.284 C405.392,22.476 404.492,22.572 403.556,22.572 C400.172,22.572 397.472,21.492 395.456,19.332 C393.44,17.172 392.432,14.484 392.432,11.268 C392.432,8.076 393.44,5.4 395.456,3.24 C397.472,1.08 400.172,0 403.556,0 C405.068,0 406.436,0.222 407.66,0.666 C408.884,1.11 409.736,1.548 410.216,1.98 L410.936,2.628 L407.948,6.624 C407.852,6.504 407.696,6.354 407.48,6.174 C407.264,5.994 406.784,5.754 406.04,5.454 C405.296,5.154 404.492,5.004 403.628,5.004 C401.924,5.004 400.532,5.58 399.452,6.732 C398.372,7.884 397.832,9.396 397.832,11.268 C397.832,13.14 398.372,14.652 399.452,15.804 C400.532,16.956 401.924,17.532 403.628,17.532 C404.492,17.532 405.284,17.4 406.004,17.136 C406.724,16.872 407.228,16.596 407.516,16.308 L407.948,15.912 Z" id="Path"></path>
                <path d="M423.544,22.572 C420.328,22.572 417.682,21.474 415.606,19.278 C413.53,17.082 412.492,14.412 412.492,11.268 C412.492,8.124 413.53,5.46 415.606,3.276 C417.682,1.092 420.328,0 423.544,0 C426.784,0 429.448,1.092 431.536,3.276 C433.624,5.46 434.668,8.124 434.668,11.268 C434.668,14.412 433.624,17.082 431.536,19.278 C429.448,21.474 426.784,22.572 423.544,22.572 Z M423.544,17.496 C425.176,17.496 426.538,16.92 427.63,15.768 C428.722,14.616 429.268,13.116 429.268,11.268 C429.268,9.42 428.722,7.92 427.63,6.768 C426.538,5.616 425.176,5.04 423.544,5.04 C421.936,5.04 420.592,5.616 419.512,6.768 C418.432,7.92 417.892,9.42 417.892,11.268 C417.892,13.116 418.432,14.616 419.512,15.768 C420.592,16.92 421.936,17.496 423.544,17.496 Z" id="Shape"></path>
                <path d="M447.996,22.572 C445.116,22.572 442.8,21.642 441.048,19.782 C439.296,17.922 438.42,15.576 438.42,12.744 L438.42,0.468 L443.64,0.468 L443.64,12.744 C443.64,14.16 444.012,15.306 444.756,16.182 C445.5,17.058 446.58,17.496 447.996,17.496 C449.436,17.496 450.522,17.058 451.254,16.182 C451.986,15.306 452.352,14.16 452.352,12.744 L452.352,0.468 L457.572,0.468 L457.572,12.744 C457.572,15.6 456.708,17.952 454.98,19.8 C453.252,21.648 450.924,22.572 447.996,22.572 Z" id="Path"></path>
                <polygon id="Path" points="482.132 0.468 482.132 22.068 478.1 22.068 467.732 9.468 467.732 22.068 462.548 22.068 462.548 0.468 466.58 0.468 476.948 12.852 476.948 0.468"></polygon>
                <path d="M501.724,15.912 L504.712,19.908 C504.64,19.98 504.544,20.076 504.424,20.196 C504.304,20.316 504.022,20.532 503.578,20.844 C503.134,21.156 502.648,21.426 502.12,21.654 C501.592,21.882 500.896,22.092 500.032,22.284 C499.168,22.476 498.268,22.572 497.332,22.572 C493.948,22.572 491.248,21.492 489.232,19.332 C487.216,17.172 486.208,14.484 486.208,11.268 C486.208,8.076 487.216,5.4 489.232,3.24 C491.248,1.08 493.948,0 497.332,0 C498.844,0 500.212,0.222 501.436,0.666 C502.66,1.11 503.512,1.548 503.992,1.98 L504.712,2.628 L501.724,6.624 C501.628,6.504 501.472,6.354 501.256,6.174 C501.04,5.994 500.56,5.754 499.816,5.454 C499.072,5.154 498.268,5.004 497.404,5.004 C495.7,5.004 494.308,5.58 493.228,6.732 C492.148,7.884 491.608,9.396 491.608,11.268 C491.608,13.14 492.148,14.652 493.228,15.804 C494.308,16.956 495.7,17.532 497.404,17.532 C498.268,17.532 499.06,17.4 499.78,17.136 C500.5,16.872 501.004,16.596 501.292,16.308 L501.724,15.912 Z" id="Path"></path>
                <polygon id="Path" points="522.072 9.072 522.072 13.176 513.288 13.176 513.288 17.568 523.764 17.568 523.764 22.068 508.068 22.068 508.068 0.468 523.764 0.468 523.764 4.968 513.288 4.968 513.288 9.072"></polygon>
                <polygon id="Path" points="542.924 22.068 528.056 22.068 528.056 0.468 533.276 0.468 533.276 17.568 542.924 17.568"></polygon>
            </g>
            <g id="Group-20">
                <circle id="Oval" fill="#FF0000" cx="161" cy="161" r="161"></circle>
                <path d="M161,24 C236.663011,24 298,85.3369893 298,161 C298,168.081585 297.462701,175.037677 296.426645,181.829733 L236.279543,128.911812 L209.802181,155.220255 L145.132,101.137255 L87.756181,163.092255 L76.8766011,153.02379 L28.2381195,194.931208 L28.2381195,194.931208 C25.4696907,184.080967 24,172.712116 24,161 C24,85.3369893 85.3369893,24 161,24 Z" id="Path" fill="#FFFFFF" fill-rule="nonzero" opacity="0.5"></path>
                <g id="Group-8" transform="translate(16.656181, 101.137255)"></g>
                <path d="M145.132,128.911812 L265.416378,214 L229.378181,174.035255 L236.279543,170.919268 L240.315239,163.608938 L289.110739,209.649642 C269.487278,261.296144 219.529962,298 161,298 C108.76429,298 63.3565779,268.765867 40.2454573,225.766195 L88.6026921,187.334441 L142.765929,214 L102.526181,176.760255 L123.279385,161 L145.132,169.14524 L145.132,128.911812 Z" id="Shape" fill="#FFFFFF" fill-rule="nonzero"></path>
            </g>
        </g>
    </g>
</svg>