<?xml version="1.0" encoding="UTF-8"?>
<svg width="322px" height="322px" viewBox="0 0 322 322" version="1.1" xmlns="http://www.w3.org/2000/svg" xmlns:xlink="http://www.w3.org/1999/xlink">
    <title>Logo/SRC-symbol@1x</title>
    <g id="Logo/SRC-symbol" stroke="none" stroke-width="1" fill="none" fill-rule="evenodd">
        <g id="Group-20">
            <circle id="Oval" fill="#FF0000" cx="161" cy="161" r="161"></circle>
            <path d="M161,24 C236.663011,24 298,85.3369893 298,161 C298,168.081585 297.462701,175.037677 296.426645,181.829733 L236.279543,128.911812 L209.802181,155.220255 L145.132,101.137255 L87.756181,163.092255 L76.8766011,153.02379 L28.2381195,194.931208 L28.2381195,194.931208 C25.4696907,184.080967 24,172.712116 24,161 C24,85.3369893 85.3369893,24 161,24 Z" id="Path" fill="#FFFFFF" fill-rule="nonzero" opacity="0.5"></path>
            <g id="Group-8" transform="translate(16.656181, 101.137255)"></g>
            <path d="M145.132,128.911812 L265.416378,214 L229.378181,174.035255 L236.279543,170.919268 L240.315239,163.608938 L289.110739,209.649642 C269.487278,261.296144 219.529962,298 161,298 C108.76429,298 63.3565779,268.765867 40.2454573,225.766195 L88.6026921,187.334441 L142.765929,214 L102.526181,176.760255 L123.279385,161 L145.132,169.14524 L145.132,128.911812 Z" id="Shape" fill="#FFFFFF" fill-rule="nonzero"></path>
        </g>
    </g>
</svg>